HIERARCHY
ROOT pelvis
{
  OFFSET 0 100 0
  CHANNELS 6 Xposition Yposition Zposition Zrotation Xrotation Yrotation
  JOINT pelvis_right_femur
  {
    OFFSET -10.78128 -3.44521 -0.5502486
    CHANNELS 3 Zrotation Xrotation Yrotation
    JOINT right_femur_tibia
    {
      OFFSET -0.8047443 -44.0398 -0.1307829
      CHANNELS 3 Zrotation Xrotation Yrotation
      JOINT right_tibia_foot
      {
        OFFSET 3.006224 -47.83518 -5
        CHANNELS 3 Zrotation Xrotation Yrotation
        End Site
        {
          OFFSET 0 -5 15
        }
      }
    }
  }
  JOINT pelvis_left_femur
  {
    OFFSET 10.78128 -3.44521 -0.5502486
    CHANNELS 3 Zrotation Xrotation Yrotation
    JOINT left_femur_tibia
    {
      OFFSET 0.8047443 -44.0398 -0.1307829
      CHANNELS 3 Zrotation Xrotation Yrotation
      JOINT left_tibia_foot
      {
        OFFSET -4.370144 -48.10324 -4.275266
        CHANNELS 3 Zrotation Xrotation Yrotation
        End Site
        {
          OFFSET 0 -5 15
        }
      }
    }
  }
  JOINT pelvis_spine1
  {
    OFFSET 0 6.468898 -3.129235
    CHANNELS 3 Zrotation Xrotation Yrotation
    JOINT spine1
    {
      OFFSET 0 23.15396 4.99043
      CHANNELS 3 Zrotation Xrotation Yrotation
      JOINT spine2
      {
        OFFSET 0 20.79997 -5.064912
        CHANNELS 3 Zrotation Xrotation Yrotation
        JOINT neck
        {
          OFFSET 0 14.38658 9.616178
          CHANNELS 3 Zrotation Xrotation Yrotation
          End Site
          {
            OFFSET 0 20 0
          }
        }
      }
      JOINT right_manubrium
      {
        OFFSET -5.722621 16.35077 3.967754
        CHANNELS 3 Zrotation Xrotation Yrotation
        JOINT right_clavicle
        {
          OFFSET -13.16364 1.694482 -4.693211
          CHANNELS 3 Zrotation Xrotation Yrotation
          JOINT right_humerus
          {
            OFFSET -28.5034 -0.3100689 -2.792744
            CHANNELS 3 Zrotation Xrotation Yrotation
            JOINT right_radius
            {
              OFFSET -25.15693 0.02248979 -1.271978
              CHANNELS 3 Zrotation Xrotation Yrotation
              End Site
              {
                OFFSET -15 0 0
              }
            }
          }
        }
      }
      JOINT left_manubrium
      {
        OFFSET 5.722621 16.35077 3.967754
        CHANNELS 3 Zrotation Xrotation Yrotation
        JOINT left_clavicle
        {
          OFFSET 13.16364 1.694482 -4.693211
          CHANNELS 3 Zrotation Xrotation Yrotation
          JOINT left_humerus
          {
            OFFSET 29.39168 -1.063119 -2.237045
            CHANNELS 3 Zrotation Xrotation Yrotation
            JOINT left_radius
            {
              OFFSET 24.59957 -0.9528479 0.9047498
              CHANNELS 3 Zrotation Xrotation Yrotation
              End Site
              {
                OFFSET 15 -0 -0
              }
            }
          }
        }
      }
    }
  }
}
MOTION
Frames: 13
Frame Time: 0.0416666666667
0 103.5113 0 2.507779 -0.922353 0.135074 2.118384 -13.17477 10.70482 -0 38.51785 -0 -5.218424 -20.24033 -3.923735 -8.169729 9.598233 -22.96216 -0 5.889525 -0 18.54104 -9.709767 29.32534 -4.542521 -4.401166 5.110656 2.850545 10.3101 -7.795525 1.35088 22.92976 5.309494 1.527496 -24.09346 8.938493 6.540639 -20.84835 11.96169 86.43958 38.78128 -18.5377 -0 0 14.41913 -6.034784 7.075605 5.243571 3.374872 -17.7072 -3.104646 -90.46203 21.40542 19.94799 0 0 -15.49372 15.12763 13.81526 -2.666027
0.2518973 103.4022 1.454616 1.980336 -0.5681828 0.1445546 2.803566 -15.0307 10.75456 -0 38.43713 -0 -5.37068 -19.19308 -3.828726 -7.877267 9.439008 -22.70619 -0 5.638958 -0 17.5406 -11.05971 29.27418 -4.214476 -4.312685 5.232979 2.786504 10.36159 -7.834161 1.44771 22.52179 5.469974 1.749887 -24.46005 9.115482 6.46275 -20.86996 11.89784 86.25534 38.06598 -18.50722 -0 0 14.96196 -6.134764 7.348777 4.986946 4.166012 -18.36917 -2.520239 -90.90212 21.19334 20.15778 0 0 -15.42554 15.49352 14.19541 -3.039258
0.5447558 103.1616 3.281773 0.4027362 -0.319592 0.1211962 4.380799 -19.80231 9.372578 -0 38.19293 -0 -5.090777 -14.66671 -3.825386 -6.868151 10.54905 -21.50735 -0 4.975798 -0 11.34707 -16.39269 26.73075 -3.477596 -3.518445 4.472099 2.960491 9.659071 -7.873565 1.458519 22.1074 6.325468 2.114508 -25.52988 9.806095 5.532827 -20.31855 11.65592 86.1387 33.9175 -18.7975 -0 0 15.38903 -7.71055 8.351576 5.359247 5.48644 -19.59383 -1.431024 -92.91882 24.64564 21.3377 0 0 -15.73562 10.87522 16.54653 1.991669
0.8278168 102.8252 5.342535 -0.3980157 0.4100175 0.08161767 5.339815 -23.2558 8.829053 -0 35.73766 -0 -5.497129 -12.49771 -3.520994 -6.265776 11.16421 -20.96266 -0 5.269604 -0 8.426271 -19.0061 25.37949 -3.074229 -3.020577 4.249613 3.037822 9.239557 -8.00055 1.48474 21.6229 6.862532 2.641426 -26.17549 10.13055 5.364007 -19.83845 11.43927 86.10912 33.51533 -19.20201 -0 0 15.65015 -8.168066 8.941901 5.011974 6.424376 -20.35116 -0.7363714 -93.5906 25.5305 21.49929 0 0 -16.01331 9.633321 17.25679 3.293507
1.114822 102.4125 7.527731 -0.873057 1.563042 0.008579083 6.247162 -26.27321 9.025575 -0 32.48282 -0 -6.265279 -11.48478 -3.023009 -5.896003 11.02622 -20.78498 -0 5.908723 -0 7.596466 -20.28242 24.95837 -2.857793 -2.811745 4.467973 3.020171 9.184475 -8.172801 1.559126 20.8408 7.202706 3.350827 -26.52303 10.1904 5.887164 -19.44493 11.34372 85.65891 34.86498 -19.4328 -0 0 16.11787 -8.08237 9.465483 4.383748 7.532925 -21.14566 -0.009613891 -93.58231 24.46276 21.08087 0 0 -16.01196 10.94075 17.30746 1.734201
1.391368 101.8993 10.00005 -1.325456 2.267311 -0.01094155 6.848124 -28.77699 8.441147 -0 29.41853 -0 -6.665895 -9.855818 -2.660103 -5.534386 11.24789 -20.01997 -0 6.913977 -0 6.002881 -21.49266 23.46525 -2.702108 -2.402716 4.212897 3.191932 8.910316 -8.300947 1.535808 20.41166 7.514133 3.73273 -26.80186 10.21472 5.938057 -18.85125 11.3162 85.49288 34.61613 -19.65814 -0 0 15.82201 -8.610321 9.822896 4.54861 8.077029 -21.61806 0.345041 -93.49358 24.20948 20.48705 0 0 -16.00911 10.76366 17.35503 1.719182
1.615614 101.2962 12.99737 -1.79553 2.726054 0.1396706 7.16609 -31.0802 6.980371 -0 25.38788 -0 -6.946366 -7.379612 -2.291458 -5.085033 12.32571 -18.72869 -0 8.66444 -0 2.911693 -22.92912 20.5982 -2.459867 -1.706213 3.504937 3.533488 8.304486 -8.439632 1.39222 20.27751 7.95577 3.939975 -27.29482 10.30977 5.425475 -18.04014 11.2435 86.02655 33.47697 -20.33319 -0 0 14.63765 -9.555534 10.0828 5.122573 7.972456 -21.8065 0.2346658 -93.35659 25.30149 19.87635 0 0 -16.72109 8.62995 17.30351 3.916259
1.741097 100.6668 16.82289 -2.190236 2.969656 0.5837514 7.194528 -32.5103 4.96424 -0 20.31168 -0 -7.367452 -4.428041 -1.836525 -4.62303 14.16727 -16.92767 -0 11.76563 -0 -0.9726434 -23.84131 16.80751 -1.988022 -0.9180408 2.575898 3.950765 7.617012 -8.615993 1.174418 20.37615 8.408744 3.931491 -28.09508 10.46556 4.264897 -17.24446 11.1248 87.67446 31.89165 -21.65529 -0 0 12.40447 -10.5621 10.15302 5.807363 7.084766 -21.73717 -0.4624958 -92.81558 27.09198 19.09961 0 0 -18.62327 5.685161 16.61389 7.20883
1.743225 100.2228 21.86889 -2.592293 3.044883 1.432991 7.427438 -32.23024 3.323316 -0 15.13036 -0 -8.391169 -1.532091 -1.237649 -4.102803 16.37288 -14.69487 -0 17.26195 -0 -4.53582 -23.26683 12.98611 -0.9556082 -0.503918 1.767472 4.25276 7.377239 -8.889764 1.026257 20.51965 8.6353 3.621858 -29.23383 10.6918 2.425009 -16.84619 10.98428 90.82033 30.03272 -23.80153 -0 0 9.072684 -11.2681 10.20638 6.234218 5.473679 -21.63052 -1.706691 -91.53434 28.51408 18.0567 0 0 -22.14367 3.793612 15.13557 9.683515
1.697334 100.3742 28.26405 -3.451044 3.028248 2.579887 9.045542 -29.96599 4.085354 -0 13.62265 -0 -10.57364 -0.3552546 -0.7397245 -3.157832 17.46141 -12.88489 -0 25.53257 -0 -5.594849 -20.04636 11.18343 0.9685598 -1.405165 1.572764 4.062058 8.479023 -9.305973 1.285033 20.29454 8.183803 2.996071 -29.91573 10.90647 0.7311205 -17.15596 10.93671 94.5058 28.12846 -26.20638 -0 0 5.718702 -11.59736 11.10136 6.127744 4.164053 -22.11106 -2.746284 -89.65494 27.36264 16.75939 0 0 -25.81149 6.00313 14.18429 7.686353
1.754789 101.2248 35.06189 -4.838917 2.848077 3.399702 11.42696 -27.79929 6.621778 -0 18.07475 -0 -12.80193 -2.567042 -1.260884 -1.759728 16.03594 -13.09459 -0 33.47388 -0 -4.831609 -14.79649 11.50202 2.913858 -3.105472 1.704054 3.310502 9.920575 -9.451164 1.861366 20.03142 7.292401 2.562486 -28.25423 10.75571 1.210536 -16.93612 11.02597 94.99918 27.72002 -26.79176 -0 0 5.082898 -12.39312 13.26365 6.219961 4.569936 -22.771 -2.530043 -89.10736 24.79746 16.09924 0 0 -24.59251 9.990203 15.75256 3.363051
1.844247 102.2312 41.2607 -4.829147 1.449517 3.346356 10.67757 -24.79597 5.663118 -0 20.34155 -0 -12.94912 -5.90098 -2.615644 -1.438975 13.16515 -13.70705 -0 41.05948 -0 -6.357389 -10.74477 10.72948 3.174362 -2.618406 1.676669 2.694788 9.227728 -8.656518 1.949479 21.28884 7.046033 2.578121 -25.61769 10.21562 2.357773 -15.35684 11.10334 93.05899 29.05495 -25.23143 -0 0 5.871328 -13.66883 14.25447 6.948526 4.509138 -21.83178 -2.574124 -89.9574 26.62019 16.4647 0 0 -20.66753 7.404248 18.04683 6.557569
1.846253 103.3994 47.00685 -3.84126 -0.7647533 2.833722 9.308054 -19.35983 4.546306 -0 19.01553 -0 -13.10157 -9.022574 -3.410868 -1.46945 8.501822 -12.97094 -0 50.66744 -0 -7.001921 -8.359292 10.70346 2.46265 -1.208688 2.312574 2.477869 8.79489 -7.807364 1.94425 22.55222 6.696189 2.470371 -24.32124 9.6931 2.318218 -14.63604 11.55619 92.62849 30.41249 -23.84125 -0 0 5.432344 -14.13852 14.24488 6.574834 3.868494 -21.11963 -2.762522 -89.31265 26.88846 15.58219 0 0 -19.16403 6.025532 18.48364 6.855774
